<?xml version="1.0"?><svg version="1.2" baseProfile="tiny-ps" viewBox="0 0 300 300" xmlns="http://www.w3.org/2000/svg" xmlns:xlink="http://www.w3.org/1999/xlink"><title>Custom Medical Specialties, Inc.</title><g><g fill="#fefefe" transform="matrix(.1 0 0 -.1 0 300)"><path d="M0 1890V780h2220v2220H0V1890z"/></g><g fill="#dac4a3" transform="matrix(.1 0 0 -.1 0 300)"><path d="m190 2802-35-17-22-40-23-40v-510l18-35 17-35 34-22 34-23h1794l33 23 33 22 18 35 19 35v510l-23 39-22 39-35 18-35 19H225l-35-18zm704-109c-17-35-17-41 1-78l15-30-20 24-20 23v22c0 12 7 32 16 44 21 30 26 28 8-5zm364-50-1-58-6 45c-6 42-4 70 5 70 2 0 3-26 2-57zm-221-30-4-28v100l4-22c2-13 2-35 0-50zm70 45-5-13-1 19c-1 11 2 17 5 13 3-3 4-12 1-19zm344-26c-4-54-11-53-11 3v48l7-7c4-4 6-24 4-44zm67-11-1-36-4 35c-3 19-10 42-16 50l-12 15 18-14 17-13-2-37zm60 3-3-39-5 47-5 47 8-8 8-8-3-39zm-180 5-4-24-5 33-6 33 10-10 9-9-4-23zm-206 1c6 0 9-3 6-6-9-8-48 14-48 27v10l16-15c8-9 20-16 26-16zm130-4 4-35-8 5c-8 5-12 64-4 64 2 0 6-15 8-34zm-55-188-4-43v160l4-37c2-21 2-57 0-80zm360 0-4-43v160l4-37c2-21 2-57 0-80zm-675-22-4-8-29 53c-40 72-37 85 4 19 19-30 32-59 29-64zm71 44 6-65-14 60c-7 33-11 64-8 68 8 13 10 6 16-63zm58-7-5-38-4 23c-3 22 3 52 11 52 1 0 1-17-2-37zm67 6-4-13-7 23-6 24 11-11c5-5 8-16 6-23zm51 10-11-22 11-26 11-26-15 19c-8 11-15 24-15 29 0 11 19 47 26 47 2 0 0-10-7-21zm128-46-4-28v100l4-22c2-13 2-35 0-50zm230 5-4-23v90l4-22c2-13 2-33 0-45zm-165 27-4-25 13-18 14-17-17 14-18 13v23c0 18 7 35 15 35 1 0 0-11-3-25zm155-197-4-43v160l4-37c2-21 2-57 0-80zm67 57 5-15h-9c-6 0-10 7-10 15s2 15 4 15 6-7 10-15zm-691-28 27-17-1-23-1-22-6 23-7 23-24 12c-14 7-26 19-28 27l-5 15 9-10c4-6 20-18 36-28zm74-89-4-43v160l4-37c2-21 2-57 0-80zm82 63-1-16-5 15c-3 8-10 24-15 35l-9 20 15-19c9-11 16-27 15-35zm56 39c-3-5-8-20-10-32l-5-22 13-15 12-16-17 14c-10 7-18 20-18 28 0 16 18 53 26 53 3 0 2-4-1-10zm343-46-3-39-5 47-5 47 8-8 8-8-3-39zm209-11-4-28v100l4-22c2-13 2-35 0-50zm68 57c-3-5-8-20-10-32l-5-22 13-15 12-16-17 14c-10 7-18 20-18 28 0 16 18 53 26 53 3 0 2-4-1-10zm-561-16 6-15-10 6c-6 3-10 10-10 16 0 14 7 11 14-7zm47-16-5-33-4 18c-3 17 3 47 11 47 2 0 1-15-2-32zm573 16 6-15-10 6c-6 3-10 10-10 16 0 14 7 11 14-7zm61-14c7 0 19-7 26-17l14-16-32 17-33 17 1 17 1 17 5-17 4-18h14zm-449-30v-20l-9 9-9 9 6 11c10 15 12 14 12-9zm181-2-5-13-1 19c-1 11 2 17 5 13 3-3 4-12 1-19z"/></g><g fill="#b3a99d" transform="matrix(.1 0 0 -.1 0 300)"><path d="m190 2802-35-19-22-43-23-43v-498l20-40 21-40 32-19 32-20h1790l31 19 31 19 22 44 21 44v488l-20 40-20 41-28 20-27 20-895 3-895 2-35-18zm398-49c-60-2-156-2-215 0-60 1-11 3 107 3s167-2 108-3zm-328-7c0-2-7-7-16-10l-15-6 6 10c6 10 25 14 25 6zm501-48c15-28 5-21-21 15l-24 32 18-14c9-8 22-23 27-33zm-165-117c3-3 37-7 77-10l72-6-124-48c-68-26-126-46-128-44s16 59 39 127l43 123 9-69c5-38 10-71 12-73zm304 120c-12-23-13-83-2-97 4-5-1-1-10 9l-18 19v22c0 12 7 32 16 44 19 27 28 29 14 3zm373-21h12l-14-9-13-9 4-41 3-40-6 7c-8 7-13 71-9 107l2 20 5-17c2-10 10-18 16-18zm-854-91c24-61 41-112 39-114-2-3-59 15-127 38l-123 42 74 10 73 10 3 63 3 62h8c4 0 27-50 50-111zm639 3 17-14-20 4-20 3-1 50-1 50 4-40 4-40 17-13zm52 43v-45h-20v90h20v-45zm220 30-12-15 4-29 4-30-8 5c-4 3-8 18-8 33v27l12 12c17 17 23 15 8-3zm70-36v-28l-10-6-10-6 6 30 6 31-13 17-14 18 18-14 17-13v-29zm50-4-8-40-1 50-1 49 9-9 9-10-8-40zm68 7 3-42h-19l-4 45-3 45 10-3 10-4 3-41zm58-3 1-44-4 35c-3 19-10 41-16 49l-12 14 15-5 15-5 1-44zm-799 19-5-13-1 19c-1 11 2 17 5 13 3-3 4-12 1-19zm398-8c7 0 19-7 26-17l14-16-15 6c-8 4-23 10-32 13l-18 6 1 22 1 21 5-17 4-18h14zm-998-287-3-108v210c0 116 2 164 3 108 2-56 2-151 0-210zm1093 121v-75l-7 4-8 5 3 71c2 39 6 71 8 71s4-34 4-76zm357-36-4-43v160l4-37c2-21 2-57 0-80zm-698 33c18-29 29-56 26-59s-6-3-8-1c-12 15-57 103-57 112 0 14 3 10 39-52zm100-51v-25l-9 20c-5 11-9 35-9 53l-1 33-11-7-11-6 13 23 13 24 7-45c4-25 8-56 8-70zm63 68c-15-15-15-61 0-76l12-12h-24l-11 26-10 27 16 23c8 13 19 24 22 24 4 0 2-5-5-12zm129 1-23-9 4-39 3-40-12 11c-28 23-1 89 36 87h16l-24-10zm339-42 6-47h-16v89l-17 5-18 5 20-2 20-2 5-48zm-673 11-5-13v50l5-12c2-7 2-19 0-25zm263 6c0-8-4-14-8-14s-8 9-8 19v20l8-5c4-3 8-12 8-20zm177-41-4-28v100l4-22c2-13 2-35 0-50zm67 37-6-30 13-17 14-18-17 14-18 13v28c0 23 7 40 16 40 2 0 1-13-2-30zm-966-130-40-120-9 6c-5 3-9 18-9 33 0 16-3 43-6 60l-6 31h-58c-31 0-60 3-64 7l-7 7 118 47c65 26 119 48 120 48 1 1-17-53-39-119zm1084 94-5-25-10 10-10 10 13 16c17 20 18 19 12-11zm-892-23 115-39-15-5c-8-3-37-8-64-11s-51-7-53-9c-1-2-6-35-10-73l-8-69-29 75c-16 41-37 96-47 123l-19 47h8c4 0 59-17 122-39zm927-143-4-43v160l4-37c2-21 2-57 0-80zm-177 92c0-5-4-10-10-10-5 0-10 5-10 10 0 6 5 10 10 10 6 0 10-4 10-10zm320 0c0-5-5-10-11-10h-10l6 10c3 6 8 10 11 10 2 0 4-4 4-10zm-767-58 27-13v-24c0-13-4-26-9-29l-9-6 5 20 5 20-31 17c-35 20-43 35-34 61l7 17 6-25 6-25 27-13zm701 23 5-15h-22l6-46 5-46-8 9c-7 7-14 66-11 101 1 17 18 15 25-3zm-623-82c-4-94-11-93-11 2v78l7-6c3-4 5-37 4-74zm79 37c0-25-10-50-21-50h-9l9 23 8 22-8 24-9 24 15-13c8-7 15-21 15-30zm50 12-8-29 11-19 11-19-17 14-17 13v22c0 18 16 46 26 46 2 0-1-13-6-28zm70-3c0-18-18-9-23 12l-5 20 14-12c8-6 14-15 14-20zm50 16-12-15 6-31 6-30-10 6c-6 3-10 19-10 34v27l12 12c17 17 23 15 8-3zm120-30v-45h-20v90h20v-45zm108-11-3-39-5 47-5 47 8-8 8-8-3-39zm209-11-4-28v100l4-22c2-13 2-35 0-50zm63 39-8-29 11-19 11-19-17 14-17 13v22c0 18 16 46 26 46 2 0-1-13-6-28zm70-3c0-18-18-9-23 12l-5 20 14-12c8-6 14-15 14-20zm87-45-7-7v10c0 5-11 15-25 21l-25 12v29l32-29 32-29-7-7zm-480 12-5-14 11-11 12-12-17 6c-18 7-24 26-11 38 11 11 15 8 10-7zm-1233-22 6-15-10 6c-6 3-10 10-10 16 0 14 7 11 14-7zm701-12c-3-3-11 0-18 7l-12 12 18-7c10-3 15-9 12-12zm-155-27c-13-14-27-25-32-25-9 0 42 49 51 50 3 0-6-11-19-25zm-519-2 14-18-17 14c-10 7-18 15-18 17 0 8 8 3 21-13z"/></g><g fill="#8f8882" transform="matrix(.1 0 0 -.1 0 300)"><path d="M205 2806c-37-16-70-52-84-89l-11-28v-486l23-43 22-43 35-19 35-18 897 2 897 3 32 30c17 17 38 44 45 62l14 32v477l-22 44-23 44-28 20-28 21-887 2-887 2-30-13zm529-77 35-30 11-52 12-52-4-175-3-175-19-31c-10-17-31-39-46-48l-28-16H253l-27 21c-14 11-33 34-41 49l-15 29v402l14 34 15 35 33 20 33 20h434l35-31zm251-8 5-10-33 6-34 5-16-17-17-16v-30c0-17 5-39 10-50 13-23 7-25-14-3l-16 15v68l26 20 27 21h28c15 0 30-4 34-9zm289-43 11-8h-25v-78l13-5 12-5-16-1-17-1-5 13c-3 7-3 26 0 41l6 28-14 9-14 9h25l1 18 1 17 5-15c3-8 11-18 17-22zm-232-40 3-43h40l3 43 3 42h19v-95l-34-2-35-3-7 12c-10 15-11 88-2 88 4 0 8-19 10-42zm122 31-7-11 29-23 28-23-13-16-13-16-22 1-21 2 23 4 22 4v15c0 8-4 14-9 14s-16 7-25 15l-15 16 5 14c4 8 10 15 16 15h9l-7-11zm165-7-12-19 7-26 6-27h50l6 24 6 24-12 21-11 21h10c21 0 29-68 9-88-7-7-22-12-35-12h-23l-15 24-16 23 10 27c6 14 15 26 21 26h10l-11-18zm189-34 3-48h-21v90h-40v-79l-10-6-10-6v102l38-3 37-3 3-47zm60 0-1-53-6 44-6 44-20 8-20 8h28l27 1-2-52zm-615-45c-7-2-21-2-30 0l-18 5h60l-12-5zm307-104v-80l-8 5-8 5 2 43c1 24 2 58 3 76 1 17 3 32 6 32s5-36 5-81zm357-41-4-43v160l4-37c2-21 2-57 0-80zm-644 47 32 59 7-40c4-21 7-55 7-73l1-35-9 10c-6 5-11 29-13 54l-3 45-25-47c-13-27-27-48-30-48-4 0-18 21-31 47l-24 47-2-15c-7-53-15-90-19-86-3 2 0 35 7 73l12 68 29-59 30-58 31 58zm357 51c0-3-4-8-10-11l-10-6v10c0 6 5 11 10 11 6 0 10-2 10-4zm-202-48c15-15 16-38 2-38-5 0-9 3-9 8 1 4 1 13 0 20l-1 12h-20c-11 0-20-3-21-7 0-5-2-19-5-32l-4-24 11-13 11-14h-11c-6 0-16 11-23 25l-11 24 17 26 16 25h18c10 0 23-5 30-12zm83 1-23-9 4-39 3-40-12 11-13 10v47l16 15c8 9 23 16 32 15h17l-24-10zm106-66-4-28v110l4-27c2-16 2-40 0-55zm127 68 6-9-21 5-22 6-13-18c-18-24-18-40 2-59 8-9 12-16 7-16s-14 5-21 12l-12 12v55l18 10c21 13 49 14 56 2zm104-3 12-12v-76h-19l-3 43-3 42-22-1h-22l5 8c8 12 38 10 52-4zm-43-63c0-28-12-33-22-9l-6 16 14 9c8 5 14 9 14 9v-25zm32-177-4-43v170l4-42c2-24 2-62 0-85zm-602 103 5-10-27 2-27 2-4-17-3-17 30-16 31-16v-24c0-13-4-26-9-29l-9-6 5 20 5 19-36 22-36 21v13c0 32 59 60 75 36zm425-1c0-5-4-10-10-10-5 0-10 5-10 10 0 6 5 10 10 10 6 0 10-4 10-10zm320 0c0-5-4-10-10-10-5 0-10 5-10 10 0 6 5 10 10 10 6 0 10-4 10-10zm-57-40h12l-14-9-13-9 4-41 4-41-11 3-10 4-5 46-6 47 10 17 10 18 4-17c2-10 9-18 15-18zm-619-17-16-16 5-23c2-13 1-40-3-61l-8-38-1 75-1 76 20 1 20 2-16-16zm60 1c16-41-7-85-42-83h-17l23 9 22 9v69l-12 5-13 5 16 1 17 1 6-16zm61-26v-42l25-7 25-7-18-1c-10-1-27 4-38 9l-19 11v55l12 12c7 7 12 12 13 12v-42zm59 26c8-22 7-34-3-34-5 0-11 11-13 25l-5 25h7c4 0 11-7 14-16zm54-8-11-25 6-16c4-8 17-20 29-25l23-9h-20c-12-1-26 4-33 11-15 15-15 61 0 76 18 18 19 15 6-12zm122-26v-50h-20v100h20v-50zm111 38c0-7 1-29 3-50l3-36-12 4-11 5 3 36 2 37-12 8-12 8h35l1-12zm209-39v-50l-10 6-10 6v89h20v-51zm65 9v-42l25-7 25-7-22-1-22-1-15 16-16 15v23c0 16 16 46 25 46v-42zm59 26c9-24 7-34-6-34h-13v25c0 28 10 33 19 9zm50 1-6-15 26-10 26-10v-13c0-7-5-18-12-25-14-14-48-16-48-4 0 5 8 8 18 8 9-1 19 4 21 9l4 10-22 10-21 10v45h19l-5-15zm-420-77 11-8h-17c-9 0-20 5-23 10l-7 11 8 17 7 17 5-20c2-11 9-23 16-27zm-539 2 20-9h-22c-12-1-25 4-28 9l-6 10 8-1c4 0 17-4 28-9zm-669 509c-14-11-33-34-41-49l-15-29v-393l16-34 17-35 28-14 28-15h427l22 16c12 8 30 30 40 47l17 32v400l-22 36-23 36-25 11-26 12H263l-27-21zm353-106 1-32 10-6c5-3 42-9 82-12l71-6-127-50c-70-27-130-47-132-44-3 3 14 62 38 131l43 126 7-38c4-20 7-51 7-69zm-166-35 45-118h-12c-6 1-67 20-136 44l-125 44 77 7 76 7 6 22c3 11 6 46 6 76v54l9-9c4-6 29-63 54-127zm4-266c-23-67-45-122-48-122s-9 27-12 59c-3 33-8 64-12 70l-6 11H207l7 7c7 8 250 103 253 99 2-1-16-57-40-124zm313 37c0-4-31-9-69-13l-69-7-7-77-7-77-49 120c-26 66-48 125-49 132v11l125-41c69-23 125-44 125-48z"/></g><g fill="#5b5550" transform="matrix(.1 0 0 -.1 0 300)"><path d="m175 2788-28-21-18-41-19-41v-462l11-34c7-19 23-46 37-62l26-27 36-11 35-10 877 3 877 3 28 21 28 20 23 44 22 44v471l-19 41-18 41-28 21-28 22H203l-28-22zm544-43 29-14 21-44 21-43v-380l-22-44-23-45-35-17-35-18H289l-32 14-33 13-27 32-27 33v429l15 29c8 15 27 38 41 49l27 21h438l28-15zm266-25 6-10-31 6-31 7-19-18-20-18v-64l20-18 19-18 31 7 31 6-6-10-6-10h-69l-20 20-20 20v70l20 20 20 20h69l6-10zm289-42 11-8h-25v-78l13-6 12-6-20 3-20 2-5 48-6 47 10 17 10 17 4-14c3-8 10-18 16-22zm-79 1 7-10-17 3-18 3-4-12-5-13 26-10 26-10v-13c0-7-5-18-12-25-14-14-48-16-48-3v9l20-5 20-5v29l-25 11c-29 13-31 24-9 46 18 19 30 20 39 5zm195-9c24-24 25-38 4-68l-15-22h-48l-15 16c-9 8-16 24-16 35v19l20 20c11 11 27 20 35 20s24-9 35-20zm115 10 6-10 19 10 19 10 15-6 16-6v-98h-22l6 33 6 32-9 14-9 14-16-6-16-6v-81h-20v90h-40v-90h-20v99l23 4c12 2 25 5 29 6 4 0 10-4 13-9zm-463-42 3-43h40l3 43 3 42h19v-97l-32-1-32-1-13 11-13 10v78h19l3-42zm238-164v-74h-38l11 29 11 29-13 16c-17 20-37 20-45 0-10-26-7-47 11-66l16-18h-11c-6 0-18 7-26 16l-16 15v57l15 12 15 12 26-5 25-4-1 26c-1 14-2 30-1 34l1 8 10-6 10-6v-75zm360 0v-74h-20v161l10-6 10-6v-75zm-306 55-5-9-10 6-9 5 6 10 5 9 10-6 9-5-6-10zm-385-84 10-6 27 53c30 59 30 59 42-29l9-63h-27v91l-10-6c-6-4-20-25-31-48l-22-41-26 49-26 50-3-47-3-48h-21l7 53c3 28 9 61 12 71l6 20 23-46c13-26 28-49 33-53zm185 49 16-6v-38h-70v-9c0-5 7-16 15-24l15-15 22 4 23 5-24-11-24-10-23 15-24 15v21c0 11 5 29 10 40l11 19h19c10 0 25-3 34-6zm206-50v-44h-20v101l10-6 10-6v-45zm120 48c0-4-12-8-27-7h-28l-3-34-3-34 13-8 13-9 20 6 20 5-17-11-16-10-25 9-25 10-7 21-7 21 16 24 16 25h30c17 0 30-4 30-8zm98-4 12-12v-74l-27-5c-15-3-33-3-40 0l-14 6 3 21 3 21 20 3 20 3-14-9-14-10 6-16 6-16 16 6 15 6-3 37-3 36-21-1h-22l5 8c8 12 38 10 52-4zm-6-199c-4-100-14-96-16 6l-1 75h20l-3-81zm-607 61 7-11-26 7-26 6-7-18-7-18 18-10c10-6 28-18 39-27l21-16-18-27-17-27-26 3-26 3-5 15-4 15 13-12c12-12 49-18 49-9 0 2 3 11 6 19l5 14-35 21-36 21v19c0 10 5 23 12 30 15 15 55 16 63 2zm425 0c0-5-4-10-10-10-5 0-10 5-10 10 0 6 5 10 10 10 6 0 10-4 10-10zm320 0c0-5-4-10-10-10-5 0-10 5-10 10 0 6 5 10 10 10 6 0 10-4 10-10zm-70-25v-15l13-1 12-1-12-5-13-5v-76l13-6 12-6-20 3-20 2-5 45c-3 25-4 53-2 63 5 21 22 23 22 2zm-559-15 19-11v-65l-12-12c-7-7-21-12-32-11h-21l23 10 23 9-3 32-3 33-21 3-21 3-5-18c-2-10-4-42-4-70l1-53h-20v149l25 4c14 2 26 5 28 6 2 0 12-4 23-9zm120 0 19-11v-39h-71l3-17 4-18h26l27 1-5-8c-8-12-49-9-62 4l-12 12v55l16 15c18 19 28 20 55 6zm113 4c9-3 16-11 16-16v-10l-14 11-13 11-16-6c-20-7-26-34-15-63l8-23 25 4 24 5-5-8c-3-5-16-9-29-9h-24l-15 22c-21 30-20 44 4 68 21 21 29 23 54 14zm180-10 16-15v-77l-37 1-38 2-3 23-3 22 31 6 31 7-4 11c-2 6-14 13-27 14l-23 4 14 9c19 12 25 11 43-7zm327 6 19-11v-39h-71l3-17 4-18 34 2 33 1-14-9c-20-12-53-11-67 3l-12 12v55l16 15c18 19 28 20 55 6zm94-1 7-10-17 3-18 3-4-12-5-13 26-10 26-10v-13c0-7-5-18-12-25-14-14-48-16-48-3v9l20-5 20-5v31l-19 6c-11 3-22 12-25 20l-5 14 15 16c18 18 30 19 39 4zm-525-49v-50h-20v100h20v-50zm320 0v-50h-20v100h20v-50zM242 2730l-33-20-15-35-14-34v-372l14-33 14-33 27-21 28-22h418l28 14 27 14 18 34 17 33-3 212-3 213-33 32-32 33-213 3-212 3-33-21zm354-117 5-33 37-1c20 0 55-3 77-7l40-7-125-49c-69-26-130-50-137-53l-12-5 47 142 47 142 8-49c4-26 10-63 13-80zm-173-20c26-67 47-124 47-127 0-2-62 16-137 42l-138 46 30 7c17 4 46 7 65 8s41 5 48 10l13 8 6 72 6 72 7-8c4-4 28-63 53-130zm45-155c-3-7-22-65-43-128s-41-119-45-123l-8-9-7 76-7 75-51 5c-29 3-65 7-82 9l-30 2 130 52c72 28 134 52 139 52l8 1-4-12zm162-35 135-48-80-10-80-10-2-20c-1-11-5-47-9-80l-6-60-33 85c-18 47-42 109-54 138-11 28-17 52-13 52s68-21 142-47zm698 251-12-26 11-16 10-17h36l7 20 7 20-8 23-8 22h-31l-12-26zm-242-179-5-15h49v30h-38l-6-15zm56-177c-19-19-14-28 14-28h25l-3 17c-4 21-21 26-36 11zm291-53c-3-9-3-18 0-22 4-3 13-3 22 0l15 6v31h-31l-6-15zm329 53c-19-19-14-28 14-28h25l-3 17c-4 21-21 26-36 11z"/></g><g fill="#211d1e" transform="matrix(.1 0 0 -.1 0 300)"><path d="m188 2795-26-15-24-37-23-38-3-231-3-232 11-41 11-42 29-32 28-32 906-3 906-2 29 15 29 15 24 37 23 38v500l-23 42-22 43-30 15-29 15h-893l-893-1-27-14zm521-43c19-9 44-30 55-45l21-28 3-211 3-211-11-27c-6-15-25-41-41-56l-30-29-222-3-222-3-33 21-33 20-19 43-20 42v381l23 44 22 44 35 18 35 18h400l34-18zm281-37v-16l-21 12-22 11-23-11-23-10-7-27-7-28 14-25 15-26 22-3 23-4 16 14 16 13-5-15-5-15-39-3-40-3-19 21-19 21v72l23 18 23 19h78v-15zm280-20v-15h13l12-1-17-10-18-10v-58l18-11 17-11-25 3-25 3-5 45c-3 25-4 53-2 63l4 17h28v-15zm-227-45-5-30 12-15 13-15 13 11 14 11v78h20v-111l-42 3-43 3-3 39c-2 21-1 45 2 53l6 14 10-6 9-6-6-29zm157 26v-14l-20 5-20 5v-9c0-5 12-15 26-21l25-12-3-23-3-22-32-3-33-3v21l25-6 25-6v10c0 5-11 17-25 26s-25 22-25 29c0 19 21 37 42 37h18v-14zm192-3 18-16v-19c0-11-5-28-10-39l-11-19h-65l-12 12c-7 7-12 23-12 37v24l17 19 16 18h20c11 0 29-7 39-17zm186 4 12-8v-89h-30v91l-17-3-18-3-3-43-3-42h-18l-3 43-3 42h-30l-3-43-3-43-11 3-11 4 1 47c0 26 1 49 1 50 2 7 127 2 139-6zm-300-198-3-82-34-3-34-4-13 11-14 11v64l12 12c7 7 22 12 35 12h23v60h31l-3-81zm360 1-3-80-10-3-10-2-3 83-3 82h32l-3-80zm-655 14 31 58 7-19c4-10 8-43 10-73l4-55-10-5-10-5-3 35c-2 19-7 39-11 43l-8 8-18-41c-10-22-21-40-25-40s-13 13-20 30c-7 16-18 35-26 41l-14 11v-81l-11-7-11-7 7 74c4 41 10 78 13 83l5 9 30-58 29-58 31 57zm357 35c0-5-7-9-15-9-15 0-20 12-9 23 8 8 24-1 24-14zm-190-49 11-20-6-10-6-10h-61l5-12 4-13h26c30 1 36-10 11-19-25-10-42-7-58 10l-16 15v55l12 12 12 12h55l11-20zm188-30-3-50-10-3-10-2-3 53-3 52h32l-3-50zm122 41v-10l-27 2-28 2v-70l33 2 33 1-12-14c-15-19-48-18-71 3l-18 16v46l16 15 15 16h59v-9zm103 1c3-4 7-27 8-52l4-44-40-1h-40l-3 23-3 22 29 13 29 12-4 12-5 13-25-6-26-7 7 12 7 11h29c16 0 31-3 33-8zm-3-203v-79h-30v78c0 78 5 96 21 86l9-5v-80zm-610 56v-15l-20 12-20 12-12-12-13-13 21-17c12-9 30-22 40-28l19-11-10-29-10-29h-75l1 10 1 10 12-4c6-2 18-4 26-5l15-1 3 20 2 20-30 17-30 17v19c0 10 5 23 12 30l12 12h56v-15zm420-1v-15l-10 6c-5 3-10 10-10 16 0 5 5 9 10 9 6 0 10-7 10-16zm321 3c-1-12-15-9-19 4l-4 12 12-4c6-3 11-8 11-12zm-71-22v-15l13-1 12-1-12-5-13-5v-76l13-5 12-5-22-1-23-1v90h-20l12 20c15 24 28 26 28 5zm-541-36 15-27-17-26-17-26h-49l-3-27-3-28h-20l-3 69c-2 38-1 74 1 80l5 12 38-1h38l15-26zm109 19c7-7 12-20 12-30v-18h-70v-9c0-5 7-14 15-21l14-12 22 7 22 7-7-11-7-11h-59l-15 24-15 23 6 19c16 44 55 59 82 32zm119-3 3-11-27 1h-28l-3-29-4-29 14-8 13-9 18 6 17 5v-21h-69l-11 19c-15 28-12 52 7 73l17 19 25-3c13-2 26-8 28-13zm63-40v-55h-20v110h20v-55zm108 43c5-7 11-32 14-54l3-42h-43l-43-1 3 27 3 27 23 3 22 3v31l-25-6-25-6v9c0 21 52 27 68 9zm212-43v-55h-20v110h20v-55zm118 43c7-7 12-20 12-30v-18h-70v-9c0-5 7-14 15-21l14-12 22 7 22 7-7-11-7-11h-59l-15 24-15 23 6 19c16 44 55 59 82 32zm94-3-3-10-19 3-20 3v-9c0-5 12-14 26-20l25-12-3-23-3-22-32-3-33-3v21l25-6 25-6v30l-20 5c-11 3-23 12-26 21l-6 16 13 16 12 15 21-3 21-3-3-10zM273 2742l-21-3-26-26-26-25-10-37c-5-20-10-49-10-64v-29l28 6c15 2 53 8 85 11l57 6v23c0 13 3 50 6 82l6 59h-33c-19 0-44-1-56-3zm107-2-8-5 51-132c28-73 53-130 56-128 8 9 91 258 87 262-6 6-177 9-186 3zm206 1c-2-3 1-41 7-83l9-78 62-1c33 0 69-4 80-8l18-7-136-53c-76-29-136-54-134-56 2-1 57-20 123-43 66-22 128-44 138-47l17-7v283l-14 34-14 33-24 16-23 15-53 4c-29 2-54 1-56-2zm-404-338 3-148 18-32 17-33 30-15 29-15h392l30 15 30 16 19 32 20 32v96l-72-7c-40-3-79-11-85-17l-13-9v-68c0-36-3-70-7-74l-7-6-50 129c-28 71-54 132-57 136l-7 6-42-128c-23-70-46-132-50-137l-8-8-7 68c-3 38-8 75-10 82l-4 12-38 1c-21 0-58 4-83 7l-45 7 138 54 138 54-8 7c-9 8-252 90-266 90h-9l4-147zm1150 230 3-38h40v70l-23 3-23 4 3-39zm-121-157-13-15 4-23 3-23h40v68l-11 4c-6 2-17-3-23-11zm-114 8c-13-13-7-24 14-24h21l-4 12c-5 14-22 21-31 12zm420-51c-12-11-8-23 7-23 8 0 16 7 20 15l5 15h-13c-7 0-16-3-19-7zm-500-139c-4-4-7-20-7-36v-29l16-6 16-6 9 14c5 8 8 25 7 39l-3 25-15 3c-9 1-19 0-23-4zm119-3-6-9 16-6c9-3 20-3 25 0l9 5-5 10c-8 12-32 12-39 0zm304-41-15-9 12-12 12-12 7 17c8 22 2 27-16 16zm316 41-6-9 13-4c6-3 18-3 25-1l12 5-6 9c-7 12-31 12-38 0z"/></g></g></svg>